<?xml version="1.0" encoding="UTF-8"?>
<svg xmlns="http://www.w3.org/2000/svg" viewBox="0 0 260.43 42.52">
  <defs>
    <style>
      .cls-1 {
        fill: #ed1c24;
        stroke-width: 0px;
      }

      .cls-2 {
        fill: none;
        stroke: #000;
        stroke-linecap: round;
        stroke-miterlimit: 10;
        stroke-width: 3px;
      }
    </style>
  </defs>
  <g id="first_last">
    <g>
      <path id="f_m" class="cls-1" d="M2.93,18.35c-.96.8-1.54,1.15-1.76,1.04s-.36-.33-.44-.66c0-.21.07-.42.22-.62s.64-.65,1.48-1.36,1.75-1.43,2.72-2.15,1.95-1.32,2.93-1.8,1.94-.83,2.9-1.04h.41c.78.12,1.31.32,1.6.62s.41.61.37.95-.28.83-.73,1.46-1.05,1.26-1.82,1.88-1.39,1.14-1.89,1.58-.55.64-.16.6.99-.23,1.79-.57,1.52-.71,2.17-1.11,1.33-.76,2.07-1.07,1.6-.63,2.59-.95,1.8-.42,2.42-.28,1.02.55,1.22,1.23.09,1.36-.31,2.04-.32.95.25.82,1.23-.36,1.98-.69,1.43-.63,2.02-.91,1.32-.61,2.17-1,1.74-.71,2.68-.95,1.68-.21,2.23.09.85.7.91,1.2-.11.99-.51,1.48-.69.91-.86,1.26.08.48.76.38,1.62-.45,2.8-1.05,2.23-1.27,3.15-1.99c.18.18.26.37.26.59,0,.2-.08.42-.23.67-.31.51-1.15,1.18-2.52,2.01s-2.97,1.36-4.8,1.6c-1.45-.06-2.28-.34-2.5-.85s-.14-.92.25-1.23.72-.73,1-1.26-.01-.65-.86-.37-1.65.6-2.39.94-1.72.69-2.93,1.05-2.4.72-3.56,1.07-2.1.55-2.83.59h-.12c-.64,0-.98-.2-1-.59.08-.68.41-1.23.98-1.64s.98-.85,1.22-1.32,0-.68-.73-.63-1.43.2-2.11.45-1.6.63-2.74,1.14-2.28.99-3.41,1.44-2.04.75-2.72.91c-.55.14-1.08.21-1.61.21-.41,0-.75,0-1.01-.03s-.47-.16-.62-.41-.09-.56.18-.92.88-.85,1.85-1.46,1.81-1.18,2.52-1.69,1.4-1.04,2.07-1.6.92-.97.78-1.25-.55-.3-1.2-.09-1.36.56-2.12,1.03-1.87,1.25-3.31,2.34l-1.08.88Z"/>
      <path id="f_a" class="cls-1" d="M38.25,15.99c1.03-.99,1.98-1.73,2.86-2.2s1.57-.83,2.07-1.04,1.19-.37,2.07-.47c1.15.04,1.93.19,2.33.46s.66.57.79.91.18.73.15,1.16.16.6.56.5.61.09.63.57-.17.98-.57,1.49-.72.88-.95,1.08-.3.43-.21.69.37.44.81.56.98.09,1.62-.08,1.19-.42,1.66-.73.89-.49,1.27-.51.63.12.75.43c0,.58-.22,1.05-.64,1.41s-1.01.66-1.77.89-1.38.35-1.85.37-.75.03-.85.03c-1.09,0-1.93-.17-2.52-.5-.64-.35-1.12-.81-1.44-1.38-.8.21-1.52.5-2.15.85s-1.25.62-1.85.79-1.25.26-1.98.26c-.5,0-1.01-.23-1.55-.69s-.8-1.32-.8-2.59c.02-.52.54-1.27,1.57-2.26ZM41.05,16.41c-.72.61-1.18,1.15-1.38,1.63s-.14.84.18,1.1.81.27,1.49.06,1.39-.51,2.12-.89,1.39-.78,1.98-1.2.93-.81,1.03-1.17.06-.74-.1-1.13-.56-.56-1.17-.5-1.28.27-1.99.64-1.43.86-2.15,1.46Z"/>
      <path id="f_s" class="cls-1" d="M52.09,17.64c.02-.62.08-1.1.19-1.44s.29-.56.54-.67.58-.16.97-.12.68.7.88,1.98c.82-.16,1.53-.39,2.12-.69s1.16-.59,1.7-.87,1.17-.57,1.89-.89,1.4-.66,2.02-1.03,1.09-.75,1.41-1.11.55-.74.7-1.11.42-.61.79-.7c.44,0,.76.1.97.27s.33.57.38,1.19c-.02.27-.09.54-.21.81s-.37.58-.77.94-.82.66-1.26.89-.94.51-1.48.84-1.08.78-1.63,1.33-.93,1.1-1.17,1.62-.49,1-.74,1.42-.64.77-1.16,1.04-1.32.44-2.4.5c-.72-.02-1.29-.11-1.7-.28s-.84-.66-1.29-1.48-.7-1.64-.76-2.46ZM56.18,19.68c.56-.09,1.07-.28,1.53-.58s.94-.74,1.41-1.33.69-.99.63-1.21c-1.15.84-2.06,1.4-2.72,1.67s-1.33.52-2,.73c.21.57.59.81,1.14.72Z"/>
      <path id="f_i" class="cls-1" d="M66.53,16.02c.72-.94,1.55-1.62,2.48-2.04s1.68-.85,2.25-1.31,1.11-.62,1.63-.47.77.47.76.98-.3.94-.88,1.29-1.01.73-1.29,1.13-.51.84-.69,1.33-.18.98-.01,1.46.48.81.95.95,1.2.21,2.2.21,1.87-.11,2.62-.31,1.41-.46,1.98-.8,1.04-.46,1.44-.37l.18.7c-.25.41-.62.76-1.1,1.04s-.95.52-1.42.72-1.14.39-2.01.59-1.86.36-2.97.5l-1.23.06c-1-.12-1.72-.31-2.17-.57s-.82-.62-1.1-1.07-.43-.9-.45-1.35.03-.9.16-1.34,0-.43-.4.04-.94.9-1.63,1.3-1.28.72-1.76.96-.81-.13-.98-1.12c1.58-.73,2.73-1.57,3.46-2.51ZM80.76,4.5l-.53-.15c-.53-.61-.93-1.04-1.2-1.32.25-.55.74-1.04,1.46-1.46l.56-.03c.47.21.71.5.73.85s.26.68.73,1l-.21.5c-.47.29-.99.5-1.55.62Z"/>
      <path id="f_n" class="cls-1" d="M78.59,17.7c.39-.18.99-.61,1.79-1.3s1.74-1.32,2.83-1.88,1.93-.98,2.55-1.26,1.28-.45,2.01-.48c.64.23,1.03.62,1.16,1.16s.08,1.11-.15,1.73-1.04,1.65-2.45,3.12c2.23-1.31,3.76-2.21,4.61-2.71s1.53-.81,2.05-.92.96.04,1.33.48.37,1.08,0,1.92-.49,1.46-.37,1.88,1.06.37,2.81-.12,3.06-.94,3.94-1.35c-.06.76-.26,1.3-.6,1.63s-1.41.77-3.19,1.35-3.12.74-4,.5-1.44-.62-1.67-1.14-.26-1.07-.09-1.66-.34-.45-1.54.41-2.25,1.53-3.15,2.02-1.57.83-2.02,1.03c-.61,0-1.08-.1-1.42-.31s-.53-.57-.57-1.1.22-1.02.78-1.46,1.09-.92,1.61-1.41.83-.99.95-1.49-.18-.67-.89-.48-1.69.71-2.93,1.57-2.06,1.4-2.46,1.61-.95.35-1.66.41c.1-.98.34-1.55.73-1.73Z"/>
      <path id="f_a_2" class="cls-1" d="M99.93,15.99c1.03-.99,1.98-1.73,2.86-2.2s1.57-.83,2.07-1.04,1.19-.37,2.07-.47c1.15.04,1.93.19,2.33.46s.66.57.79.91.18.73.15,1.16.16.6.56.5.61.09.63.57-.17.98-.57,1.49-.72.88-.95,1.08-.3.43-.21.69.37.44.81.56.98.09,1.62-.08,1.19-.42,1.66-.73.89-.49,1.27-.51.63.12.75.43c0,.58-.22,1.05-.64,1.41-.42.37-1.01.66-1.77.89s-1.38.35-1.85.37-.75.03-.85.03c-1.09,0-1.93-.17-2.52-.5-.64-.35-1.12-.81-1.44-1.38-.8.21-1.52.5-2.15.85s-1.25.62-1.85.79-1.25.26-1.98.26c-.5,0-1.01-.23-1.55-.69s-.8-1.32-.8-2.59c.02-.52.54-1.27,1.57-2.26ZM102.73,16.41c-.72.61-1.18,1.15-1.38,1.63s-.14.84.18,1.1.81.27,1.49.06,1.39-.51,2.12-.89,1.39-.78,1.98-1.2.93-.81,1.03-1.17.06-.74-.1-1.13-.56-.56-1.17-.5-1.28.27-1.99.64-1.43.86-2.15,1.46Z"/>
      <path id="l_g" class="cls-1" d="M111.75,34.49c2.13-2.34,3.76-3.95,4.89-4.82s2.32-1.74,3.57-2.61,2.65-1.74,4.2-2.61,2.89-1.61,4.01-2.21,2.33-1.14,3.62-1.61c-1.23-.04-2.24-.07-3.03-.1s-1.38-.29-1.77-.79-.57-1.05-.54-1.67.45-1.28,1.27-1.99,1.66-1.29,2.5-1.71,1.95-.99,3.3-1.67h.64c.78.37,1.32.85,1.63,1.44s.44,1.14.41,1.67-.17,1.02-.41,1.48-.27.8-.07,1.03.74.22,1.64-.02,1.83-.59,2.78-1.05,2-.47,3.13,0c-1.7,1.17-2.95,1.88-3.75,2.14s-1.78.6-2.93,1.03-2.08.86-2.78,1.29-1.57,1.13-2.59,2.11-2.16,2.32-3.41,4.04-2.49,3.33-3.71,4.82-2.23,2.71-3.02,3.66-1.78,1.96-2.96,3.05-2.11,1.78-2.78,2.08-1.31.49-1.92.57h-.64c-1.15-.33-1.93-.79-2.33-1.36s-.66-1.36-.78-2.36c.23-1.17.84-2.44,1.82-3.81ZM112.49,37.49c-.39.77-.53,1.46-.42,2.08s.47.86,1.08.75,1.23-.37,1.85-.75,1.49-1.1,2.62-2.15,2.24-2.25,3.31-3.59,2.36-2.99,3.87-4.95,3.01-3.86,4.51-5.7c-1.21.7-2.49,1.46-3.84,2.27s-2.71,1.71-4.09,2.71-2.75,2.2-4.13,3.6-2.42,2.52-3.12,3.34-1.25,1.62-1.64,2.39ZM129.96,18.86c.46.34,1.05.43,1.79.26s1.31-.52,1.73-1.05.58-1.24.47-2.11-.47-1.21-1.08-1.01-1.2.52-1.74.97-.99.97-1.33,1.55-.28,1.05.18,1.39Z"/>
      <path id="l_a" class="cls-1" d="M142.15,15.99c1.03-.99,1.98-1.73,2.86-2.2s1.57-.83,2.07-1.04,1.19-.37,2.07-.47c1.15.04,1.93.19,2.33.46s.66.57.79.91.18.73.15,1.16.16.6.56.5.61.09.63.57-.17.98-.57,1.49-.72.88-.95,1.08-.3.43-.21.69.37.44.81.56.98.09,1.62-.08,1.19-.42,1.66-.73.89-.49,1.27-.51.63.12.75.43c0,.58-.22,1.05-.64,1.41s-1.01.66-1.77.89-1.38.35-1.85.37-.75.03-.85.03c-1.09,0-1.93-.17-2.52-.5-.64-.35-1.12-.81-1.44-1.38-.8.21-1.52.5-2.15.85s-1.25.62-1.85.79-1.25.26-1.98.26c-.5,0-1.01-.23-1.55-.69s-.8-1.32-.8-2.59c.02-.52.54-1.27,1.57-2.26ZM144.95,16.41c-.72.61-1.18,1.15-1.38,1.63s-.14.84.18,1.1.81.27,1.49.06,1.39-.51,2.12-.89,1.39-.78,1.98-1.2.93-.81,1.03-1.17.06-.74-.1-1.13-.56-.56-1.17-.5-1.28.27-1.99.64-1.43.86-2.15,1.46Z"/>
      <path id="l_r" class="cls-1" d="M155.99,18.52c1.29-.72,2.62-1.82,4-3.29s2.45-2.35,3.21-2.64,1.6-.43,2.52-.43c.35.02.65.1.91.23s.41.37.47.69.05.68-.03,1.07-.31.87-.7,1.42-.85,1.03-1.39,1.41-.91.73-1.11,1.04-.22.62-.04.92.85.33,2.04.09,2.06-.47,2.62-.67,1.17-.46,1.82-.75l.35,1.32c-1.43.66-2.7,1.23-3.81,1.7s-2.29.78-3.52.94c-.82,0-1.45-.03-1.88-.1s-.83-.25-1.19-.54-.59-.65-.67-1.08-.01-.85.22-1.26.59-.8,1.05-1.17.97-.67,1.49-.89.98-.54,1.36-.95.47-.72.28-.94-.48-.28-.85-.19-1.25.82-2.64,2.21-2.77,2.37-4.16,2.96l-.35-1.08Z"/>
      <path id="l_o" class="cls-1" d="M171.81,18.67c.31.47.7.71,1.16.73s.89-.11,1.3-.38.89-.53,1.45-.78,1.1-.55,1.63-.91.79-.82.79-1.36-.21-.97-.62-1.27-.58-.69-.51-1.16.28-.79.64-.97.96-.27,1.8-.29c.88.18,1.42.62,1.61,1.32s.18,1.36-.04,1.96.05,1.15.83,1.64,1.48.65,2.09.48.96.02,1.04.57c-.1.59-.26.94-.48,1.05s-.68.22-1.36.32-1.5-.11-2.46-.63-1.64-.62-2.05-.31-1.03.72-1.85,1.22-1.63.89-2.42,1.19-1.69.44-2.71.44c-.94-.31-1.6-.79-1.99-1.45s-.59-1.37-.59-2.15c.1-.55.5-1.15,1.22-1.8s1.4-1.2,2.05-1.64,1.32-.76,1.99-.97,1.15-.18,1.44.09.47.59.56.97.05.69-.12.92-.41.39-.73.47-.77.18-1.33.31-1.18.44-1.83.94-.83.98-.51,1.45Z"/>
      <path id="l_n" class="cls-1" d="M183.55,17.7c.39-.18.99-.61,1.79-1.3s1.74-1.32,2.83-1.88,1.93-.98,2.55-1.26,1.28-.45,2.01-.48c.64.23,1.03.62,1.16,1.16s.08,1.11-.15,1.73-1.04,1.65-2.45,3.12c2.23-1.31,3.76-2.21,4.61-2.71s1.53-.81,2.05-.92.96.04,1.33.48.37,1.08,0,1.92-.49,1.46-.37,1.88,1.06.37,2.81-.12,3.06-.94,3.94-1.35c-.06.76-.26,1.3-.6,1.63s-1.41.77-3.19,1.35-3.12.74-4,.5-1.44-.62-1.67-1.14-.26-1.07-.09-1.66-.34-.45-1.54.41-2.25,1.53-3.15,2.02-1.57.83-2.02,1.03c-.61,0-1.08-.1-1.42-.31s-.53-.57-.57-1.1.22-1.02.78-1.46,1.09-.92,1.61-1.41.83-.99.95-1.49-.18-.67-.89-.48-1.69.71-2.93,1.57-2.06,1.4-2.46,1.61-.95.35-1.66.41c.1-.98.34-1.55.73-1.73Z"/>
      <path id="l_z" class="cls-1" d="M203.41,18.32c.21-.22.6-.53,1.15-.92s1.15-.75,1.81-1.07.91-.82.76-1.5-.11-1.15.11-1.39.53-.46.92-.63.94-.34,1.62-.5l1.41-.03c1.21.06,2.22.14,3.03.23s1.37.24,1.67.43.47.48.5.88-.08.79-.34,1.17-.63.78-1.14,1.19-.96.78-1.35,1.1-.88.68-1.46,1.07-.27.52.94.4,2.18-.11,2.92.04,1.39.34,1.96.56,1.48-.26,2.71-1.44l.29,1.23c-.7.82-1.25,1.44-1.66,1.85s-.92.62-1.57.64c-.64-.06-1.19-.15-1.63-.26s-.93-.23-1.46-.34-1.19-.15-1.95-.13-1.48.12-2.15.31-1.29.29-1.85.31-.93-.07-1.11-.26-.28-.45-.29-.76.22-.7.7-1.17,1.13-.96,1.95-1.46,1.49-.99,2.01-1.44.93-.84,1.23-1.17.15-.6-.47-.8-1.2-.29-1.76-.26-1,.16-1.33.39-.57.61-.7,1.11-.4.99-.79,1.44-.89.81-1.49,1.08-1.17.59-1.7.96-.93.53-1.21.48-.48-.24-.61-.55c0-.28.12-.53.34-.75Z"/>
      <path id="l_i" class="cls-1" d="M222.91,16.02c.72-.94,1.55-1.62,2.48-2.04s1.68-.85,2.25-1.31,1.11-.62,1.63-.47.77.47.76.98-.3.94-.88,1.29-1.01.73-1.29,1.13-.51.84-.69,1.33-.18.98-.01,1.46.48.81.95.95,1.2.21,2.2.21,1.87-.11,2.62-.31,1.41-.46,1.98-.8,1.04-.46,1.44-.37l.18.7c-.25.41-.62.76-1.1,1.04s-.95.52-1.42.72-1.14.39-2.01.59-1.86.36-2.97.5l-1.23.06c-1-.12-1.72-.31-2.17-.57s-.82-.62-1.1-1.07-.43-.9-.45-1.35.03-.9.16-1.34,0-.43-.4.04-.94.9-1.63,1.3-1.28.72-1.76.96-.81-.13-.98-1.12c1.58-.73,2.73-1.57,3.46-2.51ZM237.13,4.5l-.53-.15c-.53-.61-.93-1.04-1.2-1.32.25-.55.74-1.04,1.46-1.46l.56-.03c.47.21.71.5.73.85s.26.68.73,1l-.21.5c-.47.29-.99.5-1.55.62Z"/>
      <path id="l_k" class="cls-1" d="M234.13,19.63c0-.5.31-.9.9-1.21s1.56-.84,2.89-1.59,2.6-1.65,3.8-2.68,2.21-2.05,3.04-3.06,1.71-1.97,2.64-2.9,1.74-1.76,2.45-2.49,1.36-1.23,1.96-1.48l.35.03c.31.82,0,1.75-.94,2.78s-2.07,2.35-3.38,3.94-2.51,2.98-3.59,4.17-1.64,2.06-1.7,2.61c1.95-.94,3.67-1.88,5.16-2.83s2.78-1.69,3.88-2.23,1.87-.78,2.29-.73.75.3,1,.76.21.98-.1,1.55-.87.84-1.68.8-1.55.09-2.23.38-1.36.62-2.05,1-1.2.71-1.52,1.03-.35.73-.07,1.25.79.87,1.55,1.05,1.72.27,2.87.25,2.17-.1,3.06-.23,1.62-.32,2.18-.54,1-.49,1.29-.79.55-.43.76-.38.38.29.5.72c-.12.57-.46,1.06-1.03,1.48s-1.34.75-2.31,1-2.22.38-3.74.42-2.9,0-4.16-.09-2.18-.33-2.77-.69-.81-1.18-.67-2.45c-.82.59-1.66,1.15-2.52,1.69s-1.71,1.09-2.55,1.65c-.57.37-1.05.56-1.46.56-.21,0-.41-.05-.59-.15-.53-.31-.73-.71-.6-1.2s.94-1.66,2.45-3.53c-1.53,1.06-2.79,1.8-3.78,2.22s-1.51.38-1.57-.1Z"/>
    </g>
  </g>
  <g id="first_last_mask">
    <path id="f_mask_m" class="cls-2" d="M1.5,18.48l2.36-2.05,2.23-1.65,2.23-1.34s.83-.38,1.66-.45,3.26.13,1.15,2.11-3.38,3.03-3.38,3.03l-1.4.93-1.28,1.02s-1.4,1.54,3.77-.38,6.64-2.78,6.64-2.78l2.17-.87s3.07-.88,1.98.87l-1.09,1.75s-4.66,4.03,3.83,1.03l8.49-3s1.4-.55,1.09.2-1.53,2.45-1.53,2.45c0,0-3.51,2.01,1.79,1.47s6.06-4.05,6.06-4.05"/>
    <path id="f_mask_a" class="cls-2" d="M37.64,18.73s1.74-4.08,5.4-4.84c2.14-.45,3.37.13,4.03.69.47.4.64.78.64.78,0,0,1.45-.02.79-.55s-1.71-3.03-4.55-2.02-5.42,3.65-5.42,3.65c0,0-1.74,2.51-.26,3.27s3.32.38,6.07-1.09,3.51-2.18,3.51-2.18c0,0-2.74,2.7-.89,3.27s2.62.83,2.62.83l.89.06s1.79-.31,2.23-.89"/>
    <path id="f_mask_s" class="cls-2" d="M53.07,19.34l10.47-5.05,2.49-1.31s.7-1.19,0-1.23-6.27,6.37-6.27,6.37l-1.71,1.95s-2.29,1.71-3.51,0-1.21-3.52-1.21-3.52c0,0,.26-.58.74.35s2.2,2.14,2.2,2.14c0,0,3.83,1.8,6.19.64"/>
    <path id="f_mask_i_2" class="cls-2" d="M63.08,19.34l4.87-3.67s3.7-2.23,4.4-2.3-3.32,3.29-3.26,4.75c.06,1.57.6,1.22,1.65,1.99.82.61,4.81.52,6.01-.42s2.81-1.57,2.81-1.57"/>
    <path id="f_mask_i_dot" class="cls-2" d="M81.86,3.02v-1.08s.04-.61-.81-.4-1.46-.06-1.74.72-.06,1.15.57,1.47,1.02.96,1.4.38"/>
    <path id="f_mask_n" class="cls-2" d="M79.19,18.13l4.08-2.71s2.43-1.23,3.06-1.12,2.43.06,0,3.15-1.72,2.26-1.72,2.26c0,0-3.19,2.8,3.57-.77s5.23-3.06,4.09.42,7.21,0,7.21,0"/>
    <path id="f_mask_a_2" class="cls-2" d="M100,19.11s1.74-4.08,5.4-4.84c2.14-.45,3.37.13,4.03.69.47.4.64.78.64.78,0,0,1.45-.02.79-.55s-1.71-3.03-4.55-2.02-5.42,3.65-5.42,3.65c0,0-1.74,2.51-.26,3.27s3.32.38,6.07-1.09,3.51-2.18,3.51-2.18c0,0-2.74,2.7-.89,3.27s2.62.83,2.62.83l.89.06s1.79-.31,2.23-.89"/>
    <path id="l_mask_g" class="cls-2" d="M133.5,19.34s-2.3,1.18-3.57.48-2.23-1.26-1.66-2.38,3.51-2.85,3.51-2.85c0,0,3.51-1.79,3.2,1.09s-4.4,7.51-4.4,7.51l-6.77,9.02-6.89,7.21-1.85,1.47s-5.55,1.21-4.02-3.51,15.13-13.34,15.13-13.34l2.3-.85,12.64-5.21"/>
    <path id="l_mask_a" class="cls-2" d="M141.75,19.07s1.74-4.08,5.4-4.84c2.14-.45,3.37.13,4.03.69.47.4.64.78.64.78,0,0,1.45-.02.79-.55s-1.71-3.03-4.55-2.02-5.42,3.65-5.42,3.65c0,0-1.74,2.51-.26,3.27s3.32.38,6.07-1.09,3.51-2.18,3.51-2.18c0,0-2.74,2.7-.89,3.27s2.62.83,2.62.83l.89.06s1.79-.31,2.23-.89"/>
    <path id="l_mask_r" class="cls-2" d="M156.8,19.63l5.74-6.94s.53-.29.77.2,5.06-.02,1.46,3.23c0,0-5.3,3.27-3.19,3.88s2.87.08,3.64-.04,3.95-1.16,3.95-1.16"/>
    <path id="l_mask_o" class="cls-2" d="M169.63,18.8s3.5-3.91,5.49-3.91c.45,0-1.28.78-1.28.78l-1.47.51s-2.83,1.67-1.73,2.75.58,2.74,4.16.82,4.28-2.71,4.28-2.71c0,0,1.6-2.21.96-3.01s-1.99-.98-1.62-.43c.66.98,1.36,5.19,3.66,5.07s4.33-2.23,4.33-2.23"/>
    <path id="l_mask_n" class="cls-2" d="M184.09,17.98l4.08-2.71s2.43-1.23,3.06-1.12,2.43.06,0,3.15-1.72,2.26-1.72,2.26c0,0-3.19,2.8,3.57-.77s5.23-3.06,4.09.42,7.21,0,7.21,0"/>
    <path id="l_mask_z" class="cls-2" d="M204.38,18.86s1.12,0,2.46-1.69,1.53-3.04,1.53-3.04c0,0,1.53-.94,3.06-.85s2.94.32,2.94.32c0,0,2.17.7-.77,2.47s-3.84,2.79-3.84,2.79c0,0-3.95,2.04,1.42,1.34s4.47-.26,4.47-.26l3.19-.06"/>
    <path id="l_mask_i_2" class="cls-2" d="M219.74,19.57l4.87-3.67s3.7-2.23,4.4-2.3-3.32,3.29-3.26,4.75c.06,1.57.6,1.22,1.65,1.99.82.61,4.81.52,6.01-.42s2.81-1.57,2.81-1.57"/>
    <path id="l_mask_i_dot" class="cls-2" d="M238.48,3.47v-1.08s.04-.61-.81-.4-1.46-.06-1.74.72-.06,1.15.57,1.47,1.02.96,1.4.38"/>
    <path id="l_mask_k" class="cls-2" d="M236.84,18.03l4.53-2.23s3.13-1.89,4.09-3.02,3.51-4.13,3.51-4.13c0,0,2.74-2.23,2.74-3.06s-1.34.64-1.34.64l-10.79,14.13s-1.12,2.27-1.1,1.19,5.8-4.1,5.8-4.1l6.03-2.53s4.09-.67,4.09-1.32-1.6-.3-1.6-.3l-6.3,2.39-.6,3.51s.08,1.12.87,1.17,4.68.39,4.68.39l5.49-.73,1.98-1.91"/>
  </g>
</svg>