<?xml version="1.0" encoding="UTF-8"?>
<svg xmlns="http://www.w3.org/2000/svg" viewBox="0 0 1295.76 206.87" width="600" height="auto">
  <title>Signature</title>
  <defs>
    <g id="signature-masks">
      <mask id="mask-f-signature-m">
        <path class="mask" id="f_mask_m" 
          d="M5.5,86.61l33.73-23.5s30-10,14,8-25.78,20.82-25.78,20.82l-9.22,8.18s-2.98,4.17,23.01-6.42,13.28-7.08,13.28-7.08l21.45-7.95,12.27-4.55s11.85-.71,8,6-8.01,11.82-8.01,11.82l-5.99,6.18s-.45,2.17,19.78-4.42,23.22-7.58,23.22-7.58l7.41-3.71,9.7-2.67s18.63-7.04,12.26,2.67-10.37,15.71-10.37,15.71c0,0,3,5,14-1l25-9" fill="none" stroke="#000" stroke-linecap="round" stroke-miterlimit="10" stroke-width="11"/>
      </mask>
      <mask id="mask-f-signature-a">
        <path class="mask" id="f_mask_a" 
          d="M233.23,73.11s3.15-14.54-10.43-11.77-16.61,6.33-16.61,6.33l-9.19,5.44-8.44,9.85s-2.67,7.32,0,11.73,10.92,6.05,25.29-1.77,11.23-5.32,11.23-5.32c0,0,34.21-29.14,3.44,7.08-6.3,7.42,19.7,4.42,19.7,4.42l11-5" fill="none" stroke="#000" stroke-linecap="round" stroke-miterlimit="10" stroke-width="11"/>
      </mask>
      <mask id="mask-f-signature-s">
        <path id="f_mask_s" 
          d="M259.41,91.92l63.2-31.59,3.57-1.67s-.24-9.81-4.6-2.68-13.35,14.12-13.35,14.12l-8.1,9.65-7.34,11.47-5.56,4.88-3.31,3.5s-14.61,3.24-16.65-2.13-2.88-20.5-2.88-20.5" fill="none" stroke="#000" stroke-linecap="round" stroke-miterlimit="10" stroke-width="11"/>
      </mask>
      <mask id="mask-f-signature-i">
        <g id="f_mask_i">
            <path 
              d="M297.64,89.68s8.19,10.58,21.4,0,20.2-15.58,20.2-15.58l11.46-7.44s15.95-3.8,11.74-5.68-17.77,8.43-18.7,12.62l-2,9s-3,17.5,13.25,17,31.24-7.25,31.24-7.25" fill="none" stroke="#000" stroke-linecap="round" stroke-miterlimit="10" stroke-width="12"/>
            <polygon 
              points="404.82 10.32 400.8 6.59 395.12 10.32 399.97 13.73 404.82 10.32" fill="none" stroke="#000" stroke-linecap="round" stroke-linejoin="round" stroke-width="11"/>
        </g>
      </mask>
      <mask id="mask-f-signature-n">
        <path id="f_mask_n" 
          d="M388.48,91.23l16.76-12.12,13.88-9.43,10.21-3.01s11.39-5.42,7.15,3.01-7.15,10.95-7.15,10.95l-6.64,10.6-7.46,8.88s4.34,2.17,17.67-6.42,17.36-11.29,17.36-11.29l11.23-5.41c4.66-1.16,7.48.3,0,8.86-5.01,5.73-2.27,7.26-2.27,7.26,0,0,4,10,20,3s15.5-4.88,15.5-4.88" fill="none" stroke="#000" stroke-linecap="round" stroke-linejoin="round" stroke-width="11"/>
      </mask>
      <mask id="mask-f-signature-a-2">
        <path id="f_mask_a_2" d="M544.51,73.02s3.42-14.53-11.32-11.76c-14.74,2.77-18.03,6.32-18.03,6.32l-9.98,5.44-9.17,9.84s-2.9,7.31,0,11.73,11.86,6.05,27.46-1.77c15.6-7.81,12.2-5.31,12.2-5.31,0,0,37.14-29.12,3.73,7.08-6.84,7.41,21.38,4.41,21.38,4.41l11.94-5" fill="none" stroke="#000" stroke-linecap="round" stroke-miterlimit="10" stroke-width="11"/>
      </mask>
      <mask id="mask-l-signature-g">
        <path id="l_mask_g" 
          d="M664.22,64.95l-13.28,4.73-7.5,6.87s-15.14,14.18,1.32,17.87,19.45-2.49,19.45-2.49c0,0,10.01-8.82,11.01-14.82s0-12.16,0-12.16c0,0-6-5.84-6,8.16s-18.29,38-18.29,38l-20.31,24.16-27.4,34.84-27.53,24.9s-26.47,19.1-22.47-8.9,77.4-72.8,77.4-72.8l69.21-26.81" fill="none" stroke="#000" stroke-linecap="round" stroke-linejoin="round" stroke-width="11"/>
      </mask>
      <mask id="mask-l-signature-a">
        <path id="l_mask_a" 
        d="M754.11,73.03s3.42-14.53-11.32-11.76-18.03,6.32-18.03,6.32l-9.98,5.44-9.17,9.84s-2.9,7.31,0,11.73,11.86,6.05,27.46-1.77c15.6-7.81,12.2-5.31,12.2-5.31,0,0,37.14-29.12,3.73,7.08-6.84,7.41,24.23,1.5,24.23,1.5l10-9" fill="none" stroke="#000" stroke-linecap="round" stroke-miterlimit="10" stroke-width="11"/>
      </mask>
      <mask id="mask-l-signature-r">
        <path id="l_mask_r" 
          d="M783.05,87.05l24.15-28.38s2.14-3.56,4.09.44,13.79,1.81,13.79,1.81c0,0,11.84-.77,0,11.21s-6.84,7.98-6.84,7.98l-11.54,6.5-3.07,5.32s-6.85,10.1,24,0c8.61-2.82,15.61-4.82,15.61-4.82" fill="none" stroke="#000" stroke-linecap="round" stroke-miterlimit="10" stroke-width="13"/>
      </mask>
      <mask id="mask-l-signature-o">
        <path id="i_mask_o" 
          d="M873.59,69.68l-7.15.99-9.2,3.44-7.09,5.52s-3.35,29.09,19.87,16.78,21.45-17.12,21.45-17.12c0,0,9.61-8.92,6.2-15.55s-11.16-6.36-10.79-2,13.54,23.37,21.96,24.87,13.1-3.96,13.1-3.96" fill="none" stroke="#000" stroke-linecap="round" stroke-miterlimit="10" stroke-width="11"/>
      </mask>
      <mask id="mask-l-signature-n">
        <path id="l_mask_n" 
        d="M922.23,83.11l9.3-4.38,13.88-9.43,10.21-3.01s11.39-5.42,7.15,3.01-7.15,10.95-7.15,10.95l-6.64,10.6-7.46,8.88s4.34,2.17,17.67-6.42c13.33-8.58,17.36-11.29,17.36-11.29l11.23-5.41c4.66-1.16,7.48.3,0,8.86-5.01,5.73-2.27,7.26-2.27,7.26,0,0,3.46,8.62,20,3,7.7-2.62,15.7-8.62,15.7-8.62" fill="none" stroke="#000" stroke-linecap="round" stroke-linejoin="round" stroke-width="11"/>
      </mask>
      <mask id="mask-l-signature-z">
        <path id="l_mask_z"
          d="M1025.26,85.03l8.67-5.05s5.9-9.95,5.11-15.41,34.16-1.54,32.68,0-16.93,20.78-23.2,26.66-8.97,5.18-8.97,5.18c0,0,33.29-6.7,47.49,0" fill="none" stroke="#000" stroke-linecap="round" stroke-linejoin="round" stroke-width="11"/>
      </mask>
      <mask id="mask-l-signature-i">
        <g id="l_mask_i">
          <path 
            d="M1081.73,94.61s6.3,4.57,19.5-6.01,20.2-15.58,20.2-15.58l11.46-7.44s15.95-3.8,11.74-5.68-17.77,8.43-18.7,12.62l-2,9s-3,17.5,13.25,17,31.24-7.25,31.24-7.25" fill="none" stroke="#000" stroke-linecap="round" stroke-miterlimit="10" stroke-width="12"/>
          <polygon 
            points="1187.02 9.24 1183 5.5 1177.32 9.24 1182.17 12.65 1187.02 9.24" fill="none" stroke="#000" stroke-linecap="round" stroke-linejoin="round" stroke-width="11"/>
        </g>
      </mask>
      <mask id="mask-l-signature-k">
        <path id="l_mask_k" 
          d="M1171.29,91.92l29.62-15.12,17.36-13.07,12.55-13.24,16.92-18.89s22-27,7-11-63.36,73.3-63.36,73.3c0,0-16.64,14.7,17.36-4.3s40-21,40-21c0,0,32.14-16.27,14-5-16,9.94-22,14-35.28,28.32-13.14,14.17,40.63,7.52,40.63,7.52,0,0,19.69-1.21,21.67-7.52" fill="none" stroke="#000" stroke-linecap="round" stroke-miterlimit="10" stroke-width="12"/>
      </mask>
    </g>
  </defs>
  <g id="signature-fl">
    <path 
      mask="url(#mask-f-signature-m)" id="first-m"
      d="M11.59,86.94c-4.79,4-7.71,5.74-8.79,5.2-1.07-.54-1.81-1.63-2.2-3.29,0-1.07.37-2.1,1.1-3.08.73-.98,3.2-3.25,7.4-6.81,4.2-3.56,8.74-7.15,13.62-10.77,4.88-3.61,9.77-6.62,14.65-9.01,4.88-2.39,9.72-4.13,14.5-5.2h2.05c3.91.59,6.57,1.61,7.98,3.08,1.42,1.46,2.03,3.05,1.83,4.76-.2,1.71-1.42,4.15-3.66,7.32-2.25,3.17-5.27,6.3-9.08,9.38s-6.96,5.71-9.45,7.91c-2.49,2.2-2.76,3.2-.81,3,1.95-.2,4.93-1.15,8.94-2.86,4-1.71,7.62-3.56,10.84-5.57,3.22-2,6.67-3.78,10.33-5.35,3.66-1.56,7.98-3.15,12.96-4.76s9.01-2.07,12.08-1.39c3.08.68,5.1,2.74,6.08,6.15.98,3.42.46,6.81-1.54,10.18-2,3.37-1.59,4.74,1.25,4.1,2.83-.63,6.13-1.78,9.89-3.44,3.76-1.66,7.13-3.17,10.11-4.54,2.98-1.37,6.59-3.03,10.84-4.98,4.25-1.95,8.72-3.54,13.4-4.76,4.69-1.22,8.4-1.07,11.13.44,2.73,1.51,4.25,3.52,4.54,6.01s-.56,4.96-2.56,7.4c-2,2.44-3.44,4.54-4.32,6.3s.39,2.39,3.81,1.9c3.42-.49,8.08-2.25,13.99-5.27,5.91-3.03,11.16-6.35,15.75-9.96.88.88,1.32,1.86,1.32,2.93,0,.98-.39,2.1-1.17,3.37-1.56,2.54-5.76,5.89-12.6,10.03-6.84,4.15-14.84,6.81-24.02,7.98-7.23-.29-11.4-1.71-12.52-4.25-1.12-2.54-.71-4.59,1.25-6.15,1.95-1.56,3.61-3.66,4.98-6.3,1.37-2.64-.07-3.25-4.32-1.83-4.25,1.42-8.23,2.98-11.94,4.69-3.71,1.71-8.59,3.47-14.65,5.27-6.05,1.81-11.99,3.59-17.8,5.35-5.81,1.76-10.52,2.73-14.14,2.93h-.59c-3.22,0-4.88-.98-4.98-2.93.39-3.42,2.03-6.15,4.91-8.2,2.88-2.05,4.91-4.25,6.08-6.59,1.17-2.34-.05-3.39-3.66-3.15-3.61.25-7.13,1-10.55,2.27-3.42,1.27-7.98,3.17-13.7,5.71s-11.4,4.93-17.07,7.18c-5.67,2.25-10.21,3.76-13.62,4.54-2.74.68-5.42,1.03-8.06,1.03-2.05,0-3.74-.05-5.05-.15s-2.34-.78-3.08-2.05-.44-2.81.88-4.62c1.32-1.8,4.39-4.25,9.23-7.32,4.83-3.08,9.03-5.88,12.6-8.42,3.56-2.54,7.01-5.2,10.33-7.98,3.32-2.78,4.61-4.86,3.88-6.23-.73-1.37-2.74-1.51-6.01-.44-3.27,1.07-6.81,2.78-10.62,5.13s-9.33,6.25-16.55,11.72l-5.42,4.39Z" fill="#ed1c24" stroke-width="0"/>
    <path 
      mask="url(#mask-f-signature-a)" id="first-a"
      d="M188.18,75.18c5.13-4.96,9.89-8.63,14.28-11.02,4.39-2.39,7.84-4.13,10.33-5.2,2.49-1.07,5.93-1.85,10.33-2.34,5.76.2,9.64.95,11.65,2.27,2,1.32,3.32,2.83,3.96,4.54.63,1.71.88,3.64.73,5.79-.15,2.15.78,2.98,2.78,2.49,2-.49,3.05.46,3.15,2.86.1,2.39-.85,4.88-2.86,7.47-2,2.59-3.59,4.39-4.76,5.42-1.17,1.02-1.51,2.17-1.03,3.44.49,1.27,1.83,2.2,4.03,2.78s4.89.45,8.09-.4c3.2-.85,5.97-2.08,8.31-3.66,2.34-1.59,4.47-2.44,6.37-2.56,1.9-.12,3.15.6,3.74,2.16-.05,2.88-1.11,5.24-3.19,7.07-2.08,1.83-5.03,3.32-8.86,4.47-3.83,1.15-6.92,1.77-9.27,1.87s-3.76.15-4.25.15c-5.47,0-9.67-.83-12.6-2.49-3.22-1.76-5.62-4.05-7.18-6.88-4,1.07-7.59,2.49-10.77,4.25-3.17,1.76-6.25,3.08-9.23,3.96-2.98.88-6.27,1.32-9.89,1.32-2.49,0-5.07-1.15-7.73-3.44-2.66-2.29-3.99-6.62-3.99-12.96.1-2.59,2.71-6.36,7.84-11.32ZM202.16,77.27c-3.61,3.03-5.91,5.74-6.88,8.13-.98,2.39-.68,4.22.88,5.49,1.56,1.27,4.05,1.37,7.47.29,3.42-1.07,6.96-2.56,10.62-4.47,3.66-1.9,6.96-3.91,9.89-6.01,2.93-2.1,4.64-4.05,5.13-5.86.49-1.81.32-3.69-.51-5.64-.83-1.95-2.78-2.78-5.86-2.49s-6.4,1.37-9.96,3.22c-3.56,1.86-7.15,4.3-10.77,7.32Z" fill="#ed1c24" stroke-width="0"/>
    <path 
      mask="url(#mask-f-signature-s)" id="first-s"
      d="M257.39,83.42c.1-3.12.42-5.52.95-7.18.54-1.66,1.44-2.78,2.71-3.37,1.27-.59,2.88-.78,4.83-.59,1.95.2,3.42,3.49,4.39,9.89,4.1-.78,7.64-1.93,10.62-3.44,2.98-1.51,5.81-2.97,8.5-4.36,2.68-1.39,5.83-2.87,9.45-4.43,3.61-1.56,6.98-3.28,10.11-5.16,3.12-1.88,5.47-3.74,7.03-5.57,1.56-1.83,2.73-3.69,3.52-5.57.78-1.88,2.1-3.04,3.96-3.48,2.2.05,3.81.5,4.83,1.35,1.03.85,1.66,2.85,1.9,5.97-.1,1.37-.44,2.71-1.03,4.03s-1.87,2.89-3.84,4.72-4.08,3.32-6.3,4.47c-2.22,1.15-4.69,2.55-7.4,4.21-2.71,1.66-5.42,3.88-8.13,6.67s-4.66,5.48-5.86,8.09c-1.2,2.61-2.43,4.98-3.7,7.1-1.27,2.12-3.2,3.86-5.79,5.2-2.59,1.34-6.59,2.18-12.01,2.53-3.61-.1-6.45-.56-8.5-1.39-2.05-.83-4.2-3.29-6.45-7.4s-3.52-8.2-3.81-12.31ZM277.82,93.6c2.78-.44,5.33-1.4,7.65-2.89,2.32-1.49,4.67-3.71,7.07-6.67,2.39-2.95,3.44-4.97,3.15-6.04-5.76,4.2-10.29,6.98-13.59,8.35-3.3,1.37-6.63,2.59-10,3.66,1.03,2.83,2.93,4.03,5.71,3.59Z" fill="#ed1c24" stroke-width="0"/>
    <path 
      mask="url(#mask-f-signature-i)" id="first-i" 
      d="M329.61,75.33c3.61-4.71,7.75-8.1,12.42-10.18,4.66-2.07,8.41-4.26,11.24-6.56,2.83-2.29,5.54-3.08,8.13-2.34,2.59.73,3.86,2.37,3.81,4.91-.05,2.54-1.51,4.69-4.39,6.45-2.88,1.76-5.03,3.64-6.45,5.64-1.42,2-2.56,4.22-3.44,6.67-.88,2.44-.9,4.88-.07,7.32.83,2.44,2.42,4.03,4.76,4.76s6.01,1.08,10.99,1.03c4.98-.05,9.35-.56,13.11-1.54,3.76-.98,7.06-2.32,9.89-4.03,2.83-1.71,5.22-2.32,7.18-1.83l.88,3.52c-1.27,2.05-3.1,3.78-5.49,5.2-2.39,1.42-4.76,2.61-7.1,3.59s-5.69,1.95-10.03,2.93c-4.35.98-9.3,1.81-14.87,2.49l-6.15.29c-4.98-.59-8.59-1.54-10.84-2.86-2.25-1.32-4.08-3.1-5.49-5.35-1.42-2.25-2.17-4.49-2.27-6.74-.1-2.25.17-4.48.81-6.7.63-2.22-.04-2.16-2.01.18s-4.7,4.52-8.17,6.52c-3.47,2-6.4,3.6-8.79,4.8-2.39,1.2-4.03-.67-4.91-5.6,7.91-3.66,13.67-7.85,17.29-12.56ZM400.72,17.72l-2.64-.73c-2.64-3.03-4.64-5.22-6.01-6.59,1.27-2.73,3.71-5.17,7.32-7.32l2.78-.15c2.34,1.07,3.56,2.49,3.66,4.25.1,1.76,1.32,3.42,3.66,4.98l-1.03,2.49c-2.34,1.46-4.93,2.49-7.76,3.08Z" fill="#ed1c24" stroke-width="0"/>
    <path 
      mask="url(#mask-f-signature-n)" id="first-n"
      d="M389.88,83.71c1.95-.88,4.93-3.05,8.94-6.52,4-3.47,8.72-6.59,14.14-9.38s9.67-4.88,12.74-6.3c3.08-1.42,6.42-2.22,10.03-2.42,3.22,1.17,5.15,3.1,5.79,5.79.63,2.69.39,5.57-.73,8.64-1.12,3.08-5.2,8.28-12.23,15.6,11.13-6.54,18.82-11.06,23.07-13.55s7.67-4.03,10.25-4.61c2.59-.59,4.81.22,6.67,2.42,1.86,2.2,1.86,5.4,0,9.59-1.86,4.2-2.47,7.32-1.83,9.38.63,2.05,5.32,1.86,14.06-.59,8.74-2.44,15.31-4.69,19.7-6.74-.29,3.81-1.29,6.52-3,8.13-1.71,1.61-7.03,3.86-15.97,6.74-8.94,2.88-15.6,3.71-20,2.49-4.39-1.22-7.18-3.12-8.35-5.71-1.17-2.59-1.32-5.35-.44-8.28.88-2.93-1.68-2.25-7.69,2.05-6.01,4.3-11.25,7.67-15.75,10.11-4.49,2.44-7.86,4.15-10.11,5.13-3.03,0-5.4-.51-7.1-1.54-1.71-1.03-2.66-2.86-2.86-5.49-.2-2.64,1.1-5.08,3.88-7.32s5.47-4.59,8.06-7.03c2.59-2.44,4.17-4.93,4.76-7.47.59-2.54-.9-3.34-4.47-2.42-3.56.93-8.45,3.54-14.65,7.84-6.2,4.3-10.3,6.98-12.3,8.06-2,1.07-4.76,1.76-8.28,2.05.49-4.88,1.71-7.76,3.66-8.64Z" fill="#ed1c24" stroke-width="0"/>
      <path 
      mask="url(#mask-f-signature-a-2)" id="first-a-2"
      d="M496.6,75.18c5.13-4.96,9.89-8.63,14.28-11.02,4.39-2.39,7.84-4.13,10.33-5.2,2.49-1.07,5.93-1.85,10.33-2.34,5.76.2,9.64.95,11.65,2.27,2,1.32,3.32,2.83,3.96,4.54.63,1.71.88,3.64.73,5.79-.15,2.15.78,2.98,2.78,2.49,2-.49,3.05.46,3.15,2.86.1,2.39-.85,4.88-2.86,7.47-2,2.59-3.59,4.39-4.76,5.42-1.17,1.02-1.51,2.17-1.03,3.44.49,1.27,1.83,2.2,4.03,2.78s4.89.45,8.09-.4c3.2-.85,5.97-2.08,8.31-3.66,2.34-1.59,4.47-2.44,6.37-2.56,1.9-.12,3.15.6,3.74,2.16-.05,2.88-1.11,5.24-3.19,7.07-2.08,1.83-5.03,3.32-8.86,4.47-3.83,1.15-6.92,1.77-9.27,1.87s-3.76.15-4.25.15c-5.47,0-9.67-.83-12.6-2.49-3.22-1.76-5.62-4.05-7.18-6.88-4,1.07-7.59,2.49-10.77,4.25-3.17,1.76-6.25,3.08-9.23,3.96-2.98.88-6.27,1.32-9.89,1.32-2.49,0-5.07-1.15-7.73-3.44-2.66-2.29-3.99-6.62-3.99-12.96.1-2.59,2.71-6.36,7.84-11.32ZM510.59,77.27c-3.61,3.03-5.91,5.74-6.88,8.13-.98,2.39-.68,4.22.88,5.49,1.56,1.27,4.05,1.37,7.47.29,3.42-1.07,6.96-2.56,10.62-4.47,3.66-1.9,6.96-3.91,9.89-6.01,2.93-2.1,4.64-4.05,5.13-5.86.49-1.81.32-3.69-.51-5.64-.83-1.95-2.78-2.78-5.86-2.49s-6.4,1.37-9.96,3.22c-3.56,1.86-7.15,4.3-10.77,7.32Z" fill="#ed1c24" stroke-width="0"/>
    <path 
      mask="url(#mask-l-signature-g)" id="last-g" 
      d="M555.7,167.65c10.65-11.72,18.8-19.75,24.46-24.1,5.67-4.35,11.62-8.69,17.87-13.04,6.25-4.35,13.26-8.69,21.02-13.04s14.45-8.03,20.07-11.06c5.61-3.03,11.65-5.71,18.09-8.06-6.15-.2-11.21-.37-15.16-.51s-6.91-1.46-8.86-3.96c-1.95-2.49-2.86-5.27-2.71-8.35.15-3.08,2.27-6.4,6.37-9.96,4.1-3.56,8.28-6.42,12.52-8.57,4.25-2.15,9.74-4.93,16.48-8.35h3.22c3.91,1.86,6.62,4.25,8.13,7.18,1.51,2.93,2.2,5.71,2.05,8.35s-.83,5.1-2.05,7.4c-1.22,2.3-1.34,4-.37,5.13.98,1.12,3.71,1.1,8.2-.07,4.49-1.17,9.13-2.93,13.92-5.27,4.79-2.34,10.01-2.34,15.67,0-8.5,5.86-14.75,9.42-18.75,10.69-4,1.27-8.89,2.98-14.65,5.13-5.76,2.15-10.4,4.3-13.92,6.45-3.52,2.15-7.84,5.66-12.96,10.55-5.13,4.88-10.82,11.62-17.07,20.21-6.25,8.59-12.43,16.62-18.53,24.1-6.1,7.47-11.13,13.57-15.09,18.31s-8.89,9.81-14.79,15.23c-5.91,5.42-10.55,8.89-13.92,10.4s-6.57,2.46-9.59,2.86h-3.22c-5.76-1.66-9.64-3.93-11.65-6.81-2-2.88-3.3-6.81-3.88-11.79,1.17-5.86,4.2-12.21,9.08-19.04ZM559.37,182.66c-1.95,3.86-2.66,7.32-2.12,10.4.54,3.08,2.34,4.32,5.42,3.74s6.15-1.83,9.23-3.74,7.45-5.49,13.11-10.77c5.67-5.27,11.18-11.26,16.55-17.95,5.37-6.69,11.82-14.94,19.34-24.76s15.04-19.31,22.56-28.49c-6.05,3.52-12.45,7.3-19.19,11.35s-13.55,8.57-20.43,13.55-13.77,10.99-20.65,18.02-12.08,12.6-15.6,16.7-6.25,8.08-8.2,11.94ZM646.74,89.5c2.29,1.71,5.27,2.15,8.94,1.32,3.66-.83,6.54-2.59,8.64-5.27,2.1-2.68,2.88-6.2,2.34-10.55-.54-4.35-2.34-6.03-5.42-5.05-3.08.98-5.98,2.59-8.72,4.83-2.74,2.25-4.96,4.83-6.67,7.76-1.71,2.93-1.42,5.25.88,6.96Z" fill="#ed1c24" stroke-width="0"/>
    <path 
      mask="url(#mask-l-signature-a)" id="last-a" 
      d="M707.68,75.18c5.13-4.96,9.89-8.63,14.28-11.02,4.39-2.39,7.84-4.13,10.33-5.2,2.49-1.07,5.93-1.85,10.33-2.34,5.76.2,9.64.95,11.65,2.27,2,1.32,3.32,2.83,3.96,4.54.63,1.71.88,3.64.73,5.79-.15,2.15.78,2.98,2.78,2.49,2-.49,3.05.46,3.15,2.86.1,2.39-.85,4.88-2.86,7.47-2,2.59-3.59,4.39-4.76,5.42-1.17,1.02-1.51,2.17-1.03,3.44.49,1.27,1.83,2.2,4.03,2.78s4.89.45,8.09-.4c3.2-.85,5.97-2.08,8.31-3.66,2.34-1.59,4.47-2.44,6.37-2.56,1.9-.12,3.15.6,3.74,2.16-.05,2.88-1.11,5.24-3.19,7.07s-5.03,3.32-8.86,4.47c-3.83,1.15-6.92,1.77-9.27,1.87s-3.76.15-4.25.15c-5.47,0-9.67-.83-12.6-2.49-3.22-1.76-5.62-4.05-7.18-6.88-4,1.07-7.59,2.49-10.77,4.25-3.17,1.76-6.25,3.08-9.23,3.96-2.98.88-6.27,1.32-9.89,1.32-2.49,0-5.07-1.15-7.73-3.44-2.66-2.29-3.99-6.62-3.99-12.96.1-2.59,2.71-6.36,7.84-11.32ZM721.67,77.27c-3.61,3.03-5.91,5.74-6.88,8.13-.98,2.39-.68,4.22.88,5.49,1.56,1.27,4.05,1.37,7.47.29,3.42-1.07,6.96-2.56,10.62-4.47,3.66-1.9,6.96-3.91,9.89-6.01,2.93-2.1,4.64-4.05,5.13-5.86.49-1.81.32-3.69-.51-5.64-.83-1.95-2.78-2.78-5.86-2.49s-6.4,1.37-9.96,3.22c-3.56,1.86-7.15,4.3-10.77,7.32Z" fill="#ed1c24" stroke-width="0"/>
    <path 
      mask="url(#mask-l-signature-r)" id="last-r" 
      d="M776.9,87.82c6.45-3.61,13.11-9.11,20-16.48,6.88-7.37,12.23-11.77,16.04-13.18,3.81-1.42,8.01-2.12,12.6-2.12,1.76.1,3.27.49,4.54,1.17,1.27.68,2.05,1.83,2.34,3.44s.24,3.39-.15,5.35c-.39,1.95-1.56,4.32-3.52,7.1-1.95,2.78-4.27,5.13-6.96,7.03-2.69,1.9-4.54,3.64-5.57,5.2-1.03,1.56-1.1,3.1-.22,4.61.88,1.51,4.27,1.66,10.18.44,5.91-1.22,10.28-2.34,13.11-3.37,2.83-1.03,5.86-2.27,9.08-3.74l1.76,6.59c-7.13,3.32-13.48,6.15-19.04,8.5s-11.43,3.91-17.58,4.69c-4.1,0-7.23-.17-9.38-.51-2.15-.34-4.13-1.24-5.93-2.71-1.81-1.46-2.93-3.27-3.37-5.42s-.07-4.25,1.1-6.3c1.17-2.05,2.93-4,5.27-5.86,2.34-1.85,4.83-3.34,7.47-4.47,2.64-1.12,4.91-2.71,6.81-4.76s2.37-3.61,1.39-4.69c-.98-1.07-2.39-1.39-4.25-.95-1.86.44-6.25,4.13-13.18,11.06-6.93,6.93-13.87,11.87-20.8,14.8l-1.76-5.42Z" fill="#ed1c24" stroke-width="0"/>
    <path 
      mask="url(#mask-l-signature-o)" id="last-o" 
      d="M856,88.55c1.56,2.34,3.49,3.56,5.79,3.66,2.29.1,4.47-.54,6.52-1.9s4.47-2.66,7.25-3.88c2.78-1.22,5.49-2.73,8.13-4.54,2.64-1.81,3.96-4.08,3.96-6.81s-1.03-4.86-3.08-6.37c-2.05-1.51-2.91-3.44-2.56-5.79.34-2.34,1.42-3.96,3.22-4.83,1.81-.88,4.81-1.37,9.01-1.46,4.39.88,7.08,3.08,8.06,6.59.98,3.52.9,6.79-.22,9.81-1.12,3.03.27,5.76,4.17,8.2,3.91,2.44,7.4,3.25,10.47,2.42,3.08-.83,4.81.12,5.2,2.86-.49,2.93-1.29,4.69-2.42,5.27-1.12.59-3.39,1.12-6.81,1.61-3.42.49-7.52-.56-12.3-3.15-4.79-2.59-8.2-3.1-10.25-1.54s-5.13,3.59-9.23,6.08-8.13,4.47-12.08,5.93-8.47,2.2-13.55,2.2c-4.69-1.56-8.01-3.98-9.96-7.25-1.95-3.27-2.93-6.86-2.93-10.77.49-2.73,2.51-5.74,6.08-9.01,3.56-3.27,6.98-6.01,10.25-8.2,3.27-2.2,6.59-3.81,9.96-4.83s5.76-.88,7.18.44c1.42,1.32,2.34,2.93,2.78,4.83s.24,3.44-.59,4.61c-.83,1.17-2.05,1.95-3.66,2.34-1.61.39-3.83.9-6.67,1.54-2.83.64-5.88,2.2-9.16,4.69-3.27,2.49-4.13,4.91-2.56,7.25Z" fill="#ed1c24" stroke-width="0"/>
    <path 
      mask="url(#mask-l-signature-n)" id="last-n" 
      d="M914.66,83.71c1.95-.88,4.93-3.05,8.94-6.52,4-3.47,8.72-6.59,14.14-9.38s9.67-4.88,12.74-6.3c3.08-1.42,6.42-2.22,10.03-2.42,3.22,1.17,5.15,3.1,5.79,5.79.63,2.69.39,5.57-.73,8.64-1.12,3.08-5.2,8.28-12.23,15.6,11.13-6.54,18.82-11.06,23.07-13.55s7.67-4.03,10.25-4.61c2.59-.59,4.81.22,6.67,2.42,1.86,2.2,1.86,5.4,0,9.59-1.86,4.2-2.47,7.32-1.83,9.38.63,2.05,5.32,1.86,14.06-.59,8.74-2.44,15.31-4.69,19.7-6.74-.29,3.81-1.29,6.52-3,8.13-1.71,1.61-7.03,3.86-15.97,6.74-8.94,2.88-15.6,3.71-20,2.49-4.39-1.22-7.18-3.12-8.35-5.71-1.17-2.59-1.32-5.35-.44-8.28.88-2.93-1.68-2.25-7.69,2.05-6.01,4.3-11.25,7.67-15.75,10.11-4.49,2.44-7.86,4.15-10.11,5.13-3.03,0-5.4-.51-7.1-1.54-1.71-1.03-2.66-2.86-2.86-5.49-.2-2.64,1.1-5.08,3.88-7.32s5.47-4.59,8.06-7.03c2.59-2.44,4.17-4.93,4.76-7.47.59-2.54-.9-3.34-4.47-2.42-3.56.93-8.45,3.54-14.65,7.84-6.2,4.3-10.3,6.98-12.3,8.06-2,1.07-4.76,1.76-8.28,2.05.49-4.88,1.71-7.76,3.66-8.64Z" fill="#ed1c24" stroke-width="0"/>
    <path 
      mask="url(#mask-l-signature-z)" id="last-z" 
      d="M1013.98,86.83c1.07-1.1,2.99-2.64,5.75-4.61,2.76-1.98,5.77-3.76,9.04-5.35,3.27-1.59,4.54-4.09,3.81-7.51-.73-3.42-.55-5.74.55-6.96,1.1-1.22,2.64-2.27,4.62-3.15,1.98-.88,4.67-1.71,8.09-2.49l7.03-.15c6.05.29,11.11.68,15.16,1.17,4.05.49,6.84,1.2,8.35,2.12,1.51.93,2.34,2.39,2.49,4.39.15,2-.42,3.96-1.68,5.86-1.27,1.9-3.17,3.88-5.71,5.93-2.54,2.05-4.79,3.88-6.74,5.49-1.95,1.61-4.39,3.39-7.32,5.35-2.93,1.95-1.37,2.61,4.69,1.98,6.05-.63,10.91-.56,14.58.22s6.93,1.71,9.81,2.78c2.88,1.07,7.4-1.32,13.55-7.18l1.46,6.15c-3.52,4.1-6.27,7.18-8.28,9.23-2,2.05-4.61,3.12-7.84,3.22-3.22-.29-5.93-.73-8.13-1.32s-4.64-1.15-7.32-1.69c-2.69-.54-5.93-.76-9.74-.66s-7.4.61-10.77,1.54c-3.37.93-6.45,1.44-9.23,1.54s-4.64-.34-5.57-1.32c-.93-.98-1.42-2.25-1.46-3.81-.05-1.56,1.12-3.52,3.52-5.86,2.39-2.34,5.64-4.79,9.74-7.32,4.1-2.54,7.45-4.93,10.03-7.18,2.59-2.25,4.64-4.2,6.15-5.86,1.51-1.66.73-3-2.34-4.03s-6.01-1.46-8.79-1.32-5.01.81-6.67,1.98c-1.66,1.17-2.83,3.03-3.52,5.57-.68,2.54-2,4.93-3.96,7.18-1.95,2.25-4.44,4.04-7.47,5.38-3.03,1.34-5.86,2.94-8.5,4.8-2.64,1.86-4.65,2.65-6.04,2.38-1.39-.27-2.41-1.18-3.04-2.75.05-1.42.61-2.67,1.68-3.77Z" fill="#ed1c24" stroke-width="0"/>
    <path 
      mask="url(#mask-l-signature-i)" id="last-i" 
      d="M1111.47,75.33c3.61-4.71,7.75-8.1,12.41-10.18,4.66-2.07,8.41-4.26,11.24-6.56,2.83-2.29,5.54-3.08,8.13-2.34,2.59.73,3.86,2.37,3.81,4.91-.05,2.54-1.51,4.69-4.39,6.45-2.88,1.76-5.03,3.64-6.45,5.64-1.42,2-2.56,4.22-3.44,6.67-.88,2.44-.9,4.88-.07,7.32.83,2.44,2.42,4.03,4.76,4.76s6.01,1.08,10.99,1.03c4.98-.05,9.35-.56,13.11-1.54,3.76-.98,7.06-2.32,9.89-4.03,2.83-1.71,5.22-2.32,7.18-1.83l.88,3.52c-1.27,2.05-3.1,3.78-5.49,5.2-2.39,1.42-4.76,2.61-7.1,3.59s-5.69,1.95-10.03,2.93c-4.35.98-9.3,1.81-14.87,2.49l-6.15.29c-4.98-.59-8.59-1.54-10.84-2.86-2.25-1.32-4.08-3.1-5.49-5.35-1.42-2.25-2.17-4.49-2.27-6.74-.1-2.25.17-4.48.81-6.7.63-2.22-.04-2.16-2.01.18-1.98,2.34-4.7,4.52-8.17,6.52-3.47,2-6.4,3.6-8.79,4.8-2.39,1.2-4.03-.67-4.91-5.6,7.91-3.66,13.67-7.85,17.29-12.56ZM1182.59,17.72l-2.64-.73c-2.64-3.03-4.64-5.22-6.01-6.59,1.27-2.73,3.71-5.17,7.32-7.32l2.78-.15c2.34,1.07,3.56,2.49,3.66,4.25.1,1.76,1.32,3.42,3.66,4.98l-1.03,2.49c-2.34,1.46-4.93,2.49-7.76,3.08Z" fill="#ed1c24" stroke-width="0"/>
    <path 
    mask="url(#mask-l-signature-k)" id="last-k" 
    d="M1167.57,93.38c.05-2.49,1.55-4.5,4.5-6.04,2.95-1.54,7.77-4.19,14.46-7.95,6.69-3.76,13.02-8.23,19.01-13.4,5.98-5.17,11.05-10.28,15.2-15.31,4.15-5.03,8.54-9.86,13.18-14.5,4.64-4.64,8.72-8.79,12.23-12.45s6.79-6.13,9.81-7.4l1.76.15c1.56,4.1,0,8.74-4.69,13.92-4.69,5.18-10.33,11.74-16.92,19.7-6.59,7.96-12.57,14.92-17.94,20.87-5.37,5.96-8.2,10.3-8.5,13.04,9.77-4.69,18.36-9.4,25.78-14.14,7.42-4.74,13.89-8.45,19.41-11.13,5.52-2.68,9.33-3.91,11.43-3.66,2.1.25,3.76,1.51,4.98,3.81,1.22,2.3,1.05,4.88-.51,7.76-1.56,2.88-4.37,4.22-8.42,4.03-4.05-.19-7.76.44-11.13,1.9s-6.79,3.13-10.25,4.98c-3.47,1.86-6.01,3.56-7.62,5.13-1.61,1.56-1.73,3.64-.37,6.23,1.37,2.59,3.96,4.35,7.76,5.27,3.81.93,8.59,1.34,14.36,1.25,5.76-.1,10.86-.49,15.31-1.17,4.44-.68,8.08-1.59,10.91-2.71,2.83-1.12,4.98-2.44,6.45-3.95,1.46-1.51,2.73-2.15,3.81-1.9,1.07.25,1.9,1.44,2.49,3.59-.59,2.83-2.3,5.3-5.13,7.4-2.83,2.1-6.69,3.76-11.57,4.98-4.88,1.22-11.11,1.93-18.68,2.12-7.57.19-14.5.05-20.8-.44-6.3-.49-10.91-1.64-13.84-3.44-2.93-1.8-4.05-5.88-3.37-12.23-4.1,2.93-8.3,5.74-12.6,8.42-4.3,2.69-8.54,5.45-12.74,8.28-2.83,1.85-5.27,2.78-7.32,2.78-1.07,0-2.05-.25-2.93-.73-2.64-1.56-3.64-3.56-3-6.01.63-2.44,4.71-8.32,12.23-17.65-7.67,5.32-13.96,9.02-18.9,11.1-4.93,2.08-7.54,1.92-7.84-.48Z" fill="#ed1c24" stroke-width="0"/>
</g>
</svg>